<svg width="86.022mm" height="10.26mm" version="1.1" viewBox="0 0 86.022 10.26" xmlns="http://www.w3.org/2000/svg">
 <defs>
  <linearGradient id="linearGradient4612" x1="104.01" x2="7.4285" y1="138.81" y2="230.97" gradientUnits="userSpaceOnUse">
   <stop stop-color="#0185b6" offset="0"/>
   <stop stop-color="#fff" offset="1"/>
  </linearGradient>
  <linearGradient id="linearGradient4614" x1="85.451" x2="129.36" y1="132.56" y2="31.741" gradientUnits="userSpaceOnUse">
   <stop stop-color="#0aaad2" offset="0"/>
   <stop stop-color="#fff" offset="1"/>
  </linearGradient>
  <linearGradient id="linearGradient4616" x1="104.87" x2="201.52" y1="138.46" y2="208.83" gradientUnits="userSpaceOnUse">
   <stop stop-color="#019cc8" offset="0"/>
   <stop stop-color="#fff" stop-opacity=".99448" offset="1"/>
  </linearGradient>
  <linearGradient id="linearGradient6200" x1="77.375" x2="194.09" y1="164.23" y2="57.983" gradientUnits="userSpaceOnUse">
   <stop stop-color="#14b4dc" offset="0"/>
   <stop stop-color="#fff" offset="1"/>
  </linearGradient>
 </defs>
 <g transform="translate(89.381 -173.64)">
  <g transform="translate(-165.7 38.575)">
   <g transform="matrix(.1026 0 0 .1026 69.132 124.96)">
    <path d="m105 198.47-35-70 67.618 1.0974z" fill="url(#linearGradient4612)"/>
    <path d="m105 138.47-35-10 35-30c11.397 13.426 10.287 26.751 0 40z" fill="url(#linearGradient4614)"/>
    <path d="m105 198.47v-65l35-5z" fill="url(#linearGradient4616)"/>
    <path d="m105 138.47v-40l35 30z" fill="url(#linearGradient6200)"/>
   </g>
   <g transform="matrix(.26458 0 0 .26458 61.396 51.949)" fill="#108cba" style="font-feature-settings:normal;font-variant-caps:normal;font-variant-ligatures:normal;font-variant-numeric:normal" aria-label="saker.build system">
    <path d="m101.07 340.97q0 2.3906-1.9844 3.9219-1.9688 1.5312-5.3906 1.5312-1.9375 0-3.5625-0.45312-1.6094-0.46875-2.7031-1.0156v-3.2969h0.15625q1.3906 1.0469 3.0938 1.6719 1.7031 0.60938 3.2656 0.60938 1.9375 0 3.0312-0.625t1.0938-1.9688q0-1.0312-0.59375-1.5625t-2.2812-0.90625q-0.625-0.14063-1.6406-0.32813-1-0.1875-1.8281-0.40625-2.2969-0.60937-3.2656-1.7812-0.95312-1.1875-0.95312-2.9062 0-1.0781 0.4375-2.0312 0.45312-0.95312 1.3594-1.7031 0.875-0.73438 2.2188-1.1562 1.3594-0.4375 3.0312-0.4375 1.5625 0 3.1562 0.39062 1.6094 0.375 2.6719 0.92188v3.1406h-0.15625q-1.125-0.82812-2.7344-1.3906-1.6094-0.57813-3.1562-0.57813-1.6094 0-2.7188 0.625-1.1094 0.60938-1.1094 1.8281 0 1.0781 0.67188 1.625 0.65625 0.54687 2.125 0.89062 0.8125 0.1875 1.8125 0.375 1.0156 0.1875 1.6875 0.34375 2.0469 0.46875 3.1562 1.6094 1.1094 1.1562 1.1094 3.0625z"/>
    <path d="m118.86 346h-2.9219v-1.8594q-0.39062 0.26563-1.0625 0.75-0.65625 0.46875-1.2812 0.75-0.73437 0.35938-1.6875 0.59375-0.95312 0.25-2.2344 0.25-2.3594 0-4-1.5625t-1.6406-3.9844q0-1.9844 0.84375-3.2031 0.85938-1.2344 2.4375-1.9375 1.5938-0.70312 3.8281-0.95312 2.2344-0.25 4.7969-0.375v-0.45313q0-1-0.35937-1.6562-0.34375-0.65625-1-1.0312-0.625-0.35937-1.5-0.48437t-1.8281-0.125q-1.1562 0-2.5781 0.3125-1.4219 0.29687-2.9375 0.875h-0.15625v-2.9844q0.85937-0.23437 2.4844-0.51562t3.2031-0.28125q1.8438 0 3.2031 0.3125 1.375 0.29687 2.375 1.0312 0.98438 0.71875 1.5 1.8594 0.51563 1.1406 0.51563 2.8281zm-2.9219-4.2969v-4.8594q-1.3438 0.0781-3.1719 0.23437-1.8125 0.15625-2.875 0.45313-1.2656 0.35937-2.0469 1.125-0.78125 0.75-0.78125 2.0781 0 1.5 0.90625 2.2656 0.90625 0.75 2.7656 0.75 1.5469 0 2.8281-0.59375 1.2812-0.60938 2.375-1.4531z"/>
    <path d="m140.39 346h-3.875l-7-7.6406-1.9062 1.8125v5.8281h-2.9375v-24.312h2.9375v15.594l8.4844-8.7344h3.7031l-8.1094 8.0625z"/>
    <path d="m157.78 337.58h-12.859q0 1.6094 0.48437 2.8125 0.48438 1.1875 1.3281 1.9531 0.8125 0.75 1.9219 1.125 1.125 0.375 2.4688 0.375 1.7812 0 3.5781-0.70313 1.8125-0.71875 2.5781-1.4062h0.15625v3.2031q-1.4844 0.625-3.0312 1.0469-1.5469 0.42188-3.25 0.42188-4.3438 0-6.7812-2.3438-2.4375-2.3594-2.4375-6.6875 0-4.2812 2.3281-6.7969 2.3438-2.5156 6.1562-2.5156 3.5312 0 5.4375 2.0625 1.9219 2.0625 1.9219 5.8594zm-2.8594-2.25q-0.0156-2.3125-1.1719-3.5781-1.1406-1.2656-3.4844-1.2656-2.3594 0-3.7656 1.3906-1.3906 1.3906-1.5781 3.4531z"/>
    <path d="m173.12 331.75h-0.15625q-0.65625-0.15625-1.2812-0.21875-0.60937-0.0781-1.4531-0.0781-1.3594 0-2.625 0.60938-1.2656 0.59375-2.4375 1.5469v12.391h-2.9375v-17.453h2.9375v2.5781q1.75-1.4062 3.0781-1.9844 1.3438-0.59375 2.7344-0.59375 0.76562 0 1.1094 0.0469 0.34375 0.0312 1.0312 0.14062z"/>
    <path d="m176.21 346h-3.7344v-4.4531h3.7344z"/>
    <path d="m198.4 337.14q0 2.1875-0.625 3.9375-0.60937 1.75-1.6562 2.9375-1.1094 1.2344-2.4375 1.8594-1.3281 0.60937-2.9219 0.60937-1.4844 0-2.5938-0.35937-1.1094-0.34375-2.1875-0.9375l-0.1875 0.8125h-2.75v-24.312h2.9375v8.6875q1.2344-1.0156 2.625-1.6562 1.3906-0.65625 3.125-0.65625 3.0938 0 4.875 2.375 1.7969 2.375 1.7969 6.7031zm-3.0312 0.0781q0-3.125-1.0312-4.7344-1.0312-1.625-3.3281-1.625-1.2812 0-2.5938 0.5625-1.3125 0.54688-2.4375 1.4219v10q1.25 0.5625 2.1406 0.78125 0.90625 0.21875 2.0469 0.21875 2.4375 0 3.8125-1.5938 1.3906-1.6094 1.3906-5.0312z"/>
    <path d="m217.45 346h-2.9375v-1.9375q-1.4844 1.1719-2.8438 1.7969t-3 0.625q-2.75 0-4.2812-1.6719-1.5312-1.6875-1.5312-4.9375v-11.328h2.9375v9.9375q0 1.3281 0.125 2.2812 0.125 0.9375 0.53125 1.6094 0.42187 0.6875 1.0938 1 0.67187 0.3125 1.9531 0.3125 1.1406 0 2.4844-0.59375 1.3594-0.59375 2.5312-1.5156v-13.031h2.9375z"/>
    <path d="m226.39 325.62h-3.3125v-3.0469h3.3125zm-0.1875 20.375h-2.9375v-17.453h2.9375z"/>
    <path d="m235.01 346h-2.9375v-24.312h2.9375z"/>
    <path d="m255.01 346h-2.9375v-1.8281q-1.2656 1.0938-2.6406 1.7031-1.375 0.60937-2.9844 0.60937-3.125 0-4.9688-2.4062-1.8281-2.4062-1.8281-6.6719 0-2.2188 0.625-3.9531 0.64063-1.7344 1.7188-2.9531 1.0625-1.1875 2.4688-1.8125 1.4219-0.625 2.9375-0.625 1.375 0 2.4375 0.29687 1.0625 0.28125 2.2344 0.89063v-7.5625h2.9375zm-2.9375-4.2969v-10.016q-1.1875-0.53125-2.125-0.73438-0.9375-0.20312-2.0469-0.20312-2.4688 0-3.8438 1.7188t-1.375 4.875q0 3.1094 1.0625 4.7344 1.0625 1.6094 3.4062 1.6094 1.25 0 2.5312-0.54688 1.2812-0.5625 2.3906-1.4375z"/>
    <path d="m284.51 340.97q0 2.3906-1.9844 3.9219-1.9688 1.5312-5.3906 1.5312-1.9375 0-3.5625-0.45312-1.6094-0.46875-2.7031-1.0156v-3.2969h0.15625q1.3906 1.0469 3.0938 1.6719 1.7031 0.60938 3.2656 0.60938 1.9375 0 3.0312-0.625t1.0938-1.9688q0-1.0312-0.59375-1.5625t-2.2812-0.90625q-0.625-0.14063-1.6406-0.32813-1-0.1875-1.8281-0.40625-2.2969-0.60937-3.2656-1.7812-0.95312-1.1875-0.95312-2.9062 0-1.0781 0.4375-2.0312 0.45312-0.95312 1.3594-1.7031 0.875-0.73438 2.2188-1.1562 1.3594-0.4375 3.0312-0.4375 1.5625 0 3.1562 0.39062 1.6094 0.375 2.6719 0.92188v3.1406h-0.15625q-1.125-0.82812-2.7344-1.3906-1.6094-0.57813-3.1562-0.57813-1.6094 0-2.7188 0.625-1.1094 0.60938-1.1094 1.8281 0 1.0781 0.67187 1.625 0.65625 0.54687 2.125 0.89062 0.8125 0.1875 1.8125 0.375 1.0156 0.1875 1.6875 0.34375 2.0469 0.46875 3.1562 1.6094 1.1094 1.1562 1.1094 3.0625z"/>
    <path d="m303.82 328.55-10.188 23.891h-3.1406l3.25-7.2812-6.9531-16.609h3.1875l5.3594 12.938 5.4062-12.938z"/>
    <path d="m320.14 340.97q0 2.3906-1.9844 3.9219-1.9688 1.5312-5.3906 1.5312-1.9375 0-3.5625-0.45312-1.6094-0.46875-2.7031-1.0156v-3.2969h0.15625q1.3906 1.0469 3.0938 1.6719 1.7031 0.60938 3.2656 0.60938 1.9375 0 3.0312-0.625t1.0938-1.9688q0-1.0312-0.59375-1.5625t-2.2812-0.90625q-0.625-0.14063-1.6406-0.32813-1-0.1875-1.8281-0.40625-2.2969-0.60937-3.2656-1.7812-0.95312-1.1875-0.95312-2.9062 0-1.0781 0.4375-2.0312 0.45312-0.95312 1.3594-1.7031 0.875-0.73438 2.2188-1.1562 1.3594-0.4375 3.0312-0.4375 1.5625 0 3.1562 0.39062 1.6094 0.375 2.6719 0.92188v3.1406h-0.15625q-1.125-0.82812-2.7344-1.3906-1.6094-0.57813-3.1562-0.57813-1.6094 0-2.7188 0.625-1.1094 0.60938-1.1094 1.8281 0 1.0781 0.67187 1.625 0.65625 0.54687 2.125 0.89062 0.8125 0.1875 1.8125 0.375 1.0156 0.1875 1.6875 0.34375 2.0469 0.46875 3.1562 1.6094 1.1094 1.1562 1.1094 3.0625z"/>
    <path d="m333.42 345.84q-0.82813 0.21875-1.8125 0.35937-0.96875 0.14063-1.7344 0.14063-2.6719 0-4.0625-1.4375t-1.3906-4.6094v-9.2812h-1.9844v-2.4688h1.9844v-5.0156h2.9375v5.0156h6.0625v2.4688h-6.0625v7.9531q0 1.375 0.0625 2.1562 0.0625 0.76562 0.4375 1.4375 0.34375 0.625 0.9375 0.92187 0.60937 0.28125 1.8438 0.28125 0.71875 0 1.5-0.20312 0.78125-0.21875 1.125-0.35938h0.15625z"/>
    <path d="m351.59 337.58h-12.859q0 1.6094 0.48437 2.8125 0.48438 1.1875 1.3281 1.9531 0.8125 0.75 1.9219 1.125 1.125 0.375 2.4688 0.375 1.7812 0 3.5781-0.70313 1.8125-0.71875 2.5781-1.4062h0.15625v3.2031q-1.4844 0.625-3.0312 1.0469-1.5469 0.42188-3.25 0.42188-4.3438 0-6.7812-2.3438-2.4375-2.3594-2.4375-6.6875 0-4.2812 2.3281-6.7969 2.3438-2.5156 6.1562-2.5156 3.5312 0 5.4375 2.0625 1.9219 2.0625 1.9219 5.8594zm-2.8594-2.25q-0.0156-2.3125-1.1719-3.5781-1.1406-1.2656-3.4844-1.2656-2.3594 0-3.7656 1.3906-1.3906 1.3906-1.5781 3.4531z"/>
    <path d="m381.51 346h-2.9375v-9.9375q0-1.125-0.10938-2.1719-0.0938-1.0469-0.42187-1.6719-0.35938-0.67188-1.0312-1.0156-0.67188-0.34375-1.9375-0.34375-1.2344 0-2.4688 0.625-1.2344 0.60938-2.4688 1.5625 0.0469 0.35938 0.0781 0.84375 0.0312 0.46875 0.0312 0.9375v11.172h-2.9375v-9.9375q0-1.1562-0.10937-2.1875-0.0938-1.0469-0.42188-1.6719-0.35937-0.67187-1.0312-1-0.67187-0.34375-1.9375-0.34375-1.2031 0-2.4219 0.59375-1.2031 0.59375-2.4062 1.5156v13.031h-2.9375v-17.453h2.9375v1.9375q1.375-1.1406 2.7344-1.7812 1.375-0.64062 2.9219-0.64062 1.7812 0 3.0156 0.75 1.25 0.75 1.8594 2.0781 1.7812-1.5 3.25-2.1562 1.4688-0.67187 3.1406-0.67187 2.875 0 4.2344 1.75 1.375 1.7344 1.375 4.8594z"/>
   </g>
  </g>
 </g>
</svg>
